<?xml version="1.0"?>
<svg xmlns="http://www.w3.org/2000/svg" xmlns:xlink="http://www.w3.org/1999/xlink" xmlns:svgjs="http://svgjs.com/svgjs" version="1.1" width="512" height="512" x="0" y="0" viewBox="0 0 510 510" style="enable-background:new 0 0 512 512" xml:space="preserve" class=""><g><g xmlns="http://www.w3.org/2000/svg"><path d="m405 27.049v45h-75v45h-75v45h-75v82.722c-14.083-4.993-29.228-7.722-45-7.722-74.439 0-135 60.561-135 135s60.561 135 135 135c80.101 0 143.071-69.782 134.162-150h240.838v-330h-105zm-195 165h45v118.181c-5.391-10.406-12.171-20.148-20.112-28.904 0 0 0 0-.001 0-7.366-8.122-15.713-15.38-24.887-21.532zm-125.501 272.033c5.42-22.87 25.997-39.941 50.501-39.941s45.081 17.071 50.501 39.941c-31.374 17.286-69.579 17.313-101.002 0zm23.683-96.76c0-14.787 12.03-26.817 26.818-26.817s26.818 12.03 26.818 26.817c0 14.788-12.031 26.818-26.818 26.818s-26.818-12.03-26.818-26.818zm102.501 77.432c-6.793-16.367-18.742-30.066-33.814-39.068 9.277-10.116 14.95-23.589 14.95-38.364 0-31.329-25.489-56.817-56.818-56.817s-56.818 25.488-56.818 56.817c0 14.775 5.673 28.247 14.95 38.364-15.072 9.002-27.021 22.701-33.814 39.068-18.147-18.88-29.319-44.511-29.319-72.705 0-57.897 47.103-105 105-105 57.863 0 105 47.059 105 105 0 28.194-11.172 53.825-29.317 72.705zm119.317-117.705h-45c0-10.565 0-169.59 0-180h45zm75 0h-45c0-9.41 0-217.093 0-225h45zm75 0h-45c0-23.225 0-255.84 0-270h45z" fill="#fab906" data-original="#000000" style=""/><path d="m106.508 98.41 42.426 42.425 116.672-116.671-21.212-21.213-95.46 95.459-42.426-42.426-95.46 95.459 21.213 21.213z" fill="#fab906" data-original="#000000" style=""/></g></g></svg>
